<?xml version="1.0" encoding="UTF-8"?>
<svg xmlns="http://www.w3.org/2000/svg" viewBox="0 0 1200 1500" width="1200" height="1500" role="img" aria-label="Lime artisanale FemiGlow, manche en bois clair">
  <defs>
    <linearGradient id="bg-lime" x1="0" y1="0" x2="0" y2="1">
      <stop offset="0%" stop-color="#FBF8F1"/>
      <stop offset="100%" stop-color="#ECE2CC"/>
    </linearGradient>
    <linearGradient id="wood" x1="0" y1="0" x2="1" y2="0">
      <stop offset="0%" stop-color="#C8A876"/>
      <stop offset="50%" stop-color="#D9BB8A"/>
      <stop offset="100%" stop-color="#A8895E"/>
    </linearGradient>
    <linearGradient id="kaolin" x1="0" y1="0" x2="0" y2="1">
      <stop offset="0%" stop-color="#F4ECE0"/>
      <stop offset="100%" stop-color="#D8CFB8"/>
    </linearGradient>
  </defs>
  <rect width="1200" height="1500" fill="url(#bg-lime)"/>
  <g transform="translate(600 750) rotate(-12)">
    <ellipse cx="0" cy="540" rx="320" ry="20" fill="#2C2A28" opacity="0.08"/>
    <rect x="-50" y="-540" width="100" height="1080" rx="22" fill="url(#wood)"/>
    <rect x="-50" y="-540" width="100" height="640" rx="22" fill="url(#kaolin)"/>
    <line x1="-50" y1="100" x2="50" y2="100" stroke="#2C2A28" stroke-width="2" opacity="0.4"/>
    <g stroke="#A8895E" stroke-width="0.8" opacity="0.45">
      <line x1="-40" y1="-500" x2="-40" y2="80"/>
      <line x1="-20" y1="-510" x2="-20" y2="90"/>
      <line x1="0" y1="-520" x2="0" y2="100"/>
      <line x1="20" y1="-510" x2="20" y2="90"/>
      <line x1="40" y1="-500" x2="40" y2="80"/>
    </g>
    <rect x="-30" y="380" width="60" height="80" rx="6" fill="#2C2A28" opacity="0.35"/>
  </g>
  <text x="600" y="1380" text-anchor="middle" font-family="Georgia, 'Cormorant Garamond', serif" font-style="italic" font-size="32" fill="#2C2A28" opacity="0.65">la lime</text>
  <text x="600" y="1430" text-anchor="middle" font-family="Inter, system-ui, sans-serif" font-size="13" letter-spacing="3.5" fill="#2C2A28" opacity="0.4">ARTISANALE · 180 MM</text>
</svg>
